<?xml version="1.0" standalone="no"?>
<!-- Generator: Adobe Fireworks 10, Export SVG Extension by Aaron Beall (http://fireworks.abeall.com) . Version: 0.6.1  -->
<!DOCTYPE svg PUBLIC "-//W3C//DTD SVG 1.1//EN" "http://www.w3.org/Graphics/SVG/1.1/DTD/svg11.dtd">
<svg id="House-Page%201" viewBox="0 0 920 545" style="background-color:#ffffff" version="1.1"
	xmlns="http://www.w3.org/2000/svg" xmlns:xlink="http://www.w3.org/1999/xlink" xml:space="preserve"
	x="0px" y="0px" width="920px" height="545px"
>
	<g id="Venues">
		<path id="GARAGE" opacity="0.502" d="M 125 48 L 303 48 L 303 210 L 125 210 L 125 48 Z" fill="#cccccc"/>
		<path id="LEISURE_ROOM" opacity="0.502" d="M 308 87 L 410 87 L 410 215 L 308 215 L 308 87 Z" fill="#cccccc"/>
		<path id="LAUNDRY" opacity="0.502" d="M 415 87 L 473 87 L 473 185 L 490 185 L 490 215 L 415 215 L 415 87 Z" fill="#cccccc"/>
		<path id="GUEST_BEDROOM_2" opacity="0.502" d="M 246 468 L 246 376 L 126 376 L 126 468 L 246 468 Z" fill="#cccccc"/>
		<path id="GUEST_BATHROOM" opacity="0.502" d="M 251 376 L 251 468 L 352 468 L 352 421 L 310 421 L 310 376 L 251 376 Z" fill="#cccccc"/>
		<path id="GUEST_BEDROOM_1" opacity="0.502" d="M 357 468 L 357 340 L 461 340 L 461 468 L 357 468 Z" fill="#cccccc"/>
		<path id="GUEST_BEDROOM_3" opacity="0.502" d="M 205 371 L 205 271 L 81 271 L 81 371 L 205 371 Z" fill="#cccccc"/>
		<path id="HALLWAY" opacity="0.502" d="M 147 215 L 387 215 L 387 335 L 313 335 L 313 266 L 147 266 L 147 215 Z" fill="#cccccc"/>
		<path id="MASTER_BEDROOM" opacity="0.502" d="M 664 87 L 664 185 L 631 185 L 631 232 L 755 232 L 755 217 L 817 217 L 817 87 L 664 87 Z" fill="#cccccc"/>
		<path id="MASTER_TOILET" opacity="0.502" d="M 583 152 L 517 152 L 517 180 L 583 180 L 583 152 Z" fill="#cccccc"/>
		<path id="MASTER_STORAGE" opacity="0.502" d="M 539 147 L 539 87 L 478 87 L 478 180 L 512 180 L 512 147 L 539 147 Z" fill="#cccccc"/>
		<path id="MASTER_BATHROOM" opacity="0.502" d="M 544 87 L 659 87 L 659 180 L 588 180 L 588 147 L 544 147 L 544 87 Z" fill="#cccccc"/>
		<path id="TERRACE" opacity="0.502" d="M 648 354 L 648 468 L 755 468 L 755 354 L 648 354 Z" fill="#cccccc"/>
		<path id="GUEST_STORAGE" opacity="0.502" d="M 256 341 L 256 314 L 210 314 L 210 341 L 256 341 Z" fill="#cccccc"/>
		<path id="GUEST_STORAGE_3" opacity="0.502" d="M 256 309 L 256 271 L 210 271 L 210 309 L 256 309 Z" fill="#cccccc"/>
		<path id="GUEST_STORAGE_2" opacity="0.502" d="M 121 376 L 121 415 L 81 415 L 81 376 L 121 376 Z" fill="#cccccc"/>
		<path id="GUEST_STORAGE_1" opacity="0.502" d="M 315 376 L 315 416 L 352 416 L 352 376 L 315 376 Z" fill="#cccccc"/>
		<path id="GUEST_TOILET" opacity="0.502" d="M 308 341 L 308 271 L 261 271 L 261 341 L 308 341 Z" fill="#cccccc"/>
		<path id="KITCHEN" opacity="0.502" d="M 392 220 L 626 220 L 626 335 L 392 335 L 392 220 Z" fill="#cccccc"/>
		<path id="DINING_ROOM" opacity="0.502" d="M 626 335 L 626 237 L 755 237 L 755 349 L 643 349 L 626 335 Z" fill="#cccccc"/>
		<path id="MASTER_HALLWAY" opacity="0.502" d="M 626 215 L 626 185 L 495 185 L 495 215 L 626 215 Z" fill="#cccccc"/>
		<path id="LIVING_ROOM" opacity="0.502" d="M 643 349 L 626 335 L 466 335 L 466 468 L 643 468 L 643 349 Z" fill="#cccccc"/>
		<path id="GUEST_HALLWAY" opacity="0.502" d="M 313 346 L 205 346 L 205 371 L 352 371 L 352 335 L 313 335 L 313 346 Z" fill="#cccccc"/>
	</g>
	<g id="Walls">
		<path id="MASTER_WALL_1" d="M 495 185 L 495 187 L 490 187 L 490 185 L 473 185 L 473 87 L 470 87 L 470 82 L 822 82 L 822 108 L 817 108 L 817 87 L 664 87 L 664 115 L 659 115 L 659 87 L 544 87 L 544 119 L 539 119 L 539 87 L 478 87 L 478 180 L 512 180 L 512 147 L 539 147 L 539 144 L 544 144 L 544 147 L 555 147 L 555 152 L 517 152 L 517 180 L 583 180 L 583 152 L 580 152 L 580 147 L 588 147 L 588 180 L 659 180 L 659 145 L 664 145 L 664 185 L 631 185 L 631 188 L 626 188 L 626 185 L 495 185 Z" fill="#000000"/>
		<path id="MASTER_WALL_2" d="M 822 222 L 760 222 L 760 250 L 755 250 L 755 237 L 626 237 L 626 213 L 631 213 L 631 232 L 755 232 L 755 217 L 817 217 L 817 188 L 822 188 L 822 222 Z" fill="#000000"/>
		<path id="INNER_WALL_1" d="M 445 82 L 445 87 L 415 87 L 415 215 L 490 215 L 490 212 L 495 212 L 495 215 L 591 215 L 591 237 L 586 237 L 586 220 L 464 220 L 464 237 L 459 237 L 459 220 L 392 220 L 392 301 L 439 301 L 439 293 L 444 293 L 444 306 L 387 306 L 387 215 L 410 215 L 410 87 L 388 87 L 388 82 L 445 82 Z" fill="#000000"/>
		<path id="GARAGE_WALL_2" d="M 308 51 L 303 51 L 303 48 L 125 48 L 125 65 L 120 65 L 120 43 L 308 43 L 308 51 Z" fill="#000000"/>
		<path id="INNER_WALL_3" d="M 738 349 L 738 354 L 760 354 L 760 330 L 755 330 L 755 349 L 738 349 Z" fill="#000000"/>
		<path id="INNER_WALL_2" d="M 658 349 L 643 349 L 643 364 L 648 364 L 648 354 L 658 354 L 658 349 Z" fill="#000000"/>
		<path id="GUEST_WALL" d="M 76 276 L 81 276 L 81 271 L 205 271 L 205 281 L 210 281 L 210 271 L 256 271 L 256 309 L 210 309 L 210 306 L 205 306 L 205 346 L 228 346 L 228 341 L 210 341 L 210 314 L 256 314 L 256 341 L 253 341 L 253 346 L 280 346 L 280 341 L 261 341 L 261 271 L 308 271 L 308 341 L 305 341 L 305 346 L 313 346 L 313 266 L 147 266 L 147 253 L 142 253 L 142 266 L 76 266 L 76 276 Z" fill="#000000"/>
		<path id="GUEST_WALL2" d="M 81 356 L 76 356 L 76 420 L 121 420 L 121 473 L 648 473 L 648 444 L 643 444 L 643 468 L 466 468 L 466 335 L 352 335 L 352 343 L 357 343 L 357 340 L 461 340 L 461 468 L 357 468 L 357 404 L 352 404 L 352 416 L 315 416 L 315 376 L 352 376 L 352 379 L 357 379 L 357 368 L 352 368 L 352 371 L 307 371 L 307 376 L 310 376 L 310 421 L 352 421 L 352 468 L 251 468 L 251 376 L 282 376 L 282 371 L 243 371 L 243 376 L 246 376 L 246 468 L 126 468 L 126 404 L 121 404 L 121 415 L 81 415 L 81 376 L 121 376 L 121 379 L 126 379 L 126 376 L 218 376 L 218 371 L 81 371 L 81 356 Z" fill="#000000"/>
		<path id="GARAGE_WALL_1" d="M 125 190 L 120 190 L 120 215 L 142 215 L 142 228 L 147 228 L 147 215 L 275 215 L 275 210 L 125 210 L 125 190 Z" fill="#000000"/>
		<path id="TERRACE_SLIDING_DOOR_2" d="M 643 364 L 648 364 L 648 444 L 643 444 L 643 364 Z" fill="#cc0000"/>
		<path id="GUEST_BEDROOM_3_SLIDING_DOOR" d="M 76 276 L 81 276 L 81 356 L 76 356 L 76 276 Z" fill="#cc0000"/>
		<path id="TERRACE_SLIDING_DOOR_1" d="M 738 349 L 738 354 L 658 354 L 658 349 L 738 349 Z" fill="#cc0000"/>
		<path id="DINING_SLIDING_DOOR" d="M 755 250 L 760 250 L 760 330 L 755 330 L 755 250 Z" fill="#cc0000"/>
		<path id="MASTER_SLIDING_DOOR" d="M 817 108 L 822 108 L 822 188 L 817 188 L 817 108 Z" fill="#cc0000"/>
		<path d="M 308 87 L 308 215 L 300 215 L 300 210 L 303 210 L 303 76 L 308 76 L 308 82 L 331 82 L 331 87 L 308 87 Z" fill="#000000"/>
	</g>
	<g id="Doors">
		<path id="LAUNDRY_DOOR" d="M 470 112 C 456.1927 112 445 100.8073 445 87 C 445 83.0222 445 82 445 82 L 470 82 L 470 112 Z" fill="#cc0000"/>
		<path id="MASTER_HALLWAY_DOOR" d="M 465 212 C 465 198.1927 476.1927 187 490 187 C 493.9778 187 495 187 495 187 L 495 212 L 465 212 Z" fill="#cc0000"/>
		<path id="GUEST_STORAGE_1_DOOR" d="M 327 379 C 327 392.8073 338.1927 404 352 404 C 355.9778 404 357 404 357 404 L 357 379 L 327 379 Z" fill="#cc0000"/>
		<path id="GUEST_STORAGE_2_DOOR" d="M 96 379 C 96 392.8073 107.1927 404 121 404 C 124.9778 404 126 404 126 404 L 126 379 L 96 379 Z" fill="#cc0000"/>
		<path id="GUEST_BEDROOM_%21_DOOR" d="M 382 343 C 382 356.8073 370.8073 368 357 368 C 353.0222 368 352 368 352 368 L 352 343 L 382 343 Z" fill="#cc0000"/>
		<path id="GUEST_TOILET_DOOR" d="M 305 316 C 291.1927 316 280 327.1927 280 341 C 280 344.9778 280 346 280 346 L 305 346 L 305 316 Z" fill="#cc0000"/>
		<path id="GUEST_STORAGE_DOOR" d="M 253 316 C 239.1927 316 228 327.1927 228 341 C 228 344.9778 228 346 228 346 L 253 346 L 253 316 Z" fill="#cc0000"/>
		<path id="GUEST_STORAGE_3_DOOR" d="M 235 306 C 235 292.1927 223.8073 281 210 281 C 206.0222 281 205 281 205 281 L 205 306 L 235 306 Z" fill="#cc0000"/>
		<path id="GUEST_BATHROOM_DOOR" d="M 307 401 C 293.1927 401 282 389.8073 282 376 C 282 372.0222 282 371 282 371 L 307 371 L 307 401 Z" fill="#cc0000"/>
		<path id="GUEST_BEDROOM_2_DOOR" d="M 243 401 C 229.1927 401 218 389.8073 218 376 C 218 372.0222 218 371 218 371 L 243 371 L 243 401 Z" fill="#cc0000"/>
		<path id="GUEST_BEDROOM_3_DOOR" d="M 180 371 C 180 357.1927 191.1927 346 205 346 C 208.9778 346 210 346 210 346 L 210 371 L 180 371 Z" fill="#cc0000"/>
		<path id="MASTER_BEDROOM_DOOR" d="M 656 188 C 656 201.8073 644.8073 213 631 213 C 627.0222 213 626 213 626 213 L 626 188 L 656 188 Z" fill="#cc0000"/>
		<path id="MASTER_STORAGE_DOOR" d="M 514 144 C 514 130.1927 525.1927 119 539 119 C 542.9778 119 544 119 544 119 L 544 144 L 514 144 Z" fill="#cc0000"/>
		<path id="GARAGE_INSIDE_DOOR" d="M 300 185 C 286.1927 185 275 196.1927 275 210 C 275 213.9778 275 215 275 215 L 300 215 L 300 185 Z" fill="#cc0000"/>
		<path id="GARAGE_OUTSIDE_DOOR" d="M 278 51 C 278 64.8073 289.1927 76 303 76 C 306.9778 76 308 76 308 76 L 308 51 L 278 51 Z" fill="#cc0000"/>
		<path id="ENTRANCE_DOOR" d="M 172 253 C 172 239.1927 160.8073 228 147 228 C 143.0222 228 142 228 142 228 L 142 253 L 172 253 Z" fill="#cc0000"/>
		<path id="MASTER_TOILET_DOOR" d="M 580 177 C 566.1927 177 555 165.8073 555 152 C 555 148.0222 555 147 555 147 L 580 147 L 580 177 Z" fill="#cc0000"/>
		<path id="GARAGE_ROLLERDOOR" d="M 125 65 L 120 65 L 120 190 L 125 190 L 125 65 Z" fill="#cc0000"/>
	</g>
	<g id="Windows">
		<path id="MASTER_BEDROOM_WINDOW_1" d="M 787 87 L 787 82 L 807 82 L 807 87 L 787 87 Z" fill="#0000ff"/>
		<path id="MASTER_BEDROOM_WINDOW_2" d="M 674 87 L 674 82 L 694 82 L 694 87 L 674 87 Z" fill="#0000ff"/>
		<path id="LIVING_ROOM_WINDOW_2" d="M 613 473 L 613 468 L 633 468 L 633 473 L 613 473 Z" fill="#0000ff"/>
		<path id="LIVING_ROOM_WINDOW_1" d="M 476 473 L 476 468 L 496 468 L 496 473 L 476 473 Z" fill="#0000ff"/>
		<path id="GUEST_BEDROOM_2_WINDOW_1" d="M 216 473 L 216 468 L 236 468 L 236 473 L 216 473 Z" fill="#0000ff"/>
		<path id="GUEST_BEDROOM_WINDOW_2" d="M 121 430 L 126 430 L 126 450 L 121 450 L 121 430 Z" fill="#0000ff"/>
		<path id="MASTER_BATHROOM_WINDOW" d="M 597 87 L 597 82 L 654 82 L 654 87 L 597 87 Z" fill="#0000ff"/>
		<path id="LEISURE_ROOM_WINDOW" d="M 331 87 L 331 82 L 388 82 L 388 87 L 331 87 Z" fill="#0000ff"/>
		<path id="GUEST_BATHROOM_1_WINDOW" d="M 256 473 L 256 468 L 313 468 L 313 473 L 256 473 Z" fill="#0000ff"/>
		<path id="GUEST_BEDROOM_1_WINDOWS" d="M 380 473 L 380 468 L 437 468 L 437 473 L 380 473 Z" fill="#0000ff"/>
	</g>
	<g id="Ceilings">
	</g>
</svg>