<?xml version="1.0" standalone="no"?>
<!-- Generator: Adobe Fireworks 10, Export SVG Extension by Aaron Beall (http://fireworks.abeall.com) . Version: 0.6.1  -->
<!DOCTYPE svg PUBLIC "-//W3C//DTD SVG 1.1//EN" "http://www.w3.org/Graphics/SVG/1.1/DTD/svg11.dtd">
<svg id="Unit-Page%201" viewBox="0 0 300 250" style="background-color:#ffffff" version="1.1"
	xmlns="http://www.w3.org/2000/svg" xmlns:xlink="http://www.w3.org/1999/xlink" xml:space="preserve"
	x="0px" y="0px" width="300px" height="250px"
>
	<g id="Images">
		<image opacity="0.502" visibility="hidden" x="1" y="13" width="300" height="250" xlink:href="Unit.svg.images/image1.png"/>
	</g>
	<g id="Floors">
		<path id="KITCHEN" d="M 38 152 L 137 152 L 137 215 L 38 215 L 38 152 Z" fill="#cccccc"/>
		<path id="LIVING_ROOM" d="M 38 147 L 38 35 L 175 35 L 175 131 L 142 147 L 38 147 Z" fill="#cccccc"/>
		<path id="BEDROOM" d="M 264 35 L 180 35 L 180 126 L 264 126 L 264 35 Z" fill="#cccccc"/>
		<path id="HALLWAY" d="M 175 215 L 142 215 L 142 147 L 175 131 L 218 131 L 218 168 L 175 168 L 175 215 Z" fill="#cccccc"/>
		<path id="STORAGE_ROOM" d="M 264 131 L 223 131 L 223 168 L 264 168 L 264 131 Z" fill="#cccccc"/>
		<path id="REST_ROOM" d="M 180 173 L 264 173 L 264 215 L 180 215 L 180 173 Z" fill="#cccccc"/>
	</g>
	<g id="Walls">
		<path id="WALL_2" d="M 83 152 L 83 147 L 142 147 L 142 169 L 137 169 L 137 152 L 83 152 Z" fill="#000000"/>
		<path id="WALL_1" d="M 175 168 L 183 168 L 183 173 L 180 173 L 180 215 L 264 215 L 264 173 L 208 173 L 208 168 L 218 168 L 218 131 L 208 131 L 208 126 L 226 126 L 226 131 L 223 131 L 223 168 L 264 168 L 264 131 L 251 131 L 251 126 L 264 126 L 264 35 L 180 35 L 180 126 L 183 126 L 183 131 L 175 131 L 175 35 L 38 35 L 38 147 L 58 147 L 58 152 L 38 152 L 38 215 L 137 215 L 137 194 L 142 194 L 142 215 L 147 215 L 147 220 L 33 220 L 33 30 L 269 30 L 269 220 L 172 220 L 172 215 L 175 215 L 175 168 Z" fill="#000000"/>
	</g>
	<g id="Doors">
		<path id="ENTRANCE_DOOR" d="M 172 190 C 158.1927 190 147 201.1927 147 215 C 147 218.9778 147 220 147 220 L 172 220 L 172 190 Z" fill="#cc0000"/>
		<path id="REST_ROOM_DOOR" d="M 183 198 C 196.8073 198 208 186.8073 208 173 C 208 169.0222 208 168 208 168 L 183 168 L 183 198 Z" fill="#cc0000"/>
		<path id="STORAGE_ROOM_DOOR" d="M 226 156 C 239.8073 156 251 144.8073 251 131 C 251 127.0222 251 126 251 126 L 226 126 L 226 156 Z" fill="#cc0000"/>
		<path id="BEDROOM_DOOR" d="M 183 101 C 196.8073 101 208 112.1927 208 126 C 208 129.9778 208 131 208 131 L 183 131 L 183 101 Z" fill="#cc0000"/>
		<path id="TEST" visibility="hidden" d="M 101 83 L 108 101 L 108 106 L 83 106 L 83 76 L 101 83 Z" fill="#cc0000"/>
	</g>
	<g id="Windows">
		<path id="LIVING_ROOM_WINDOW_1" d="M 64 30 L 64 35 L 97 35 L 97 30 L 64 30 Z" fill="#0000ff"/>
		<path id="LIVING_ROOM_WINDOW_2" d="M 121 30 L 121 35 L 154 35 L 154 30 L 121 30 Z" fill="#0000ff"/>
		<path id="BEDROOM_WINDOW" d="M 201 30 L 201 35 L 234 35 L 234 30 L 201 30 Z" fill="#0000ff"/>
		<path id="KITCHEN_WINDOW" d="M 38 164 L 33 164 L 33 197 L 38 197 L 38 164 Z" fill="#0000ff"/>
	</g>
</svg>